<svg width="270" height="54" viewBox="0 0 270 54" fill="none" xmlns="http://www.w3.org/2000/svg">
<path d="M5.27618 47.0661C3.14541 47.0661 1.62344 48.642 1.62344 50.8482V53.0545H33.9908V47.0661H5.27618ZM0 9.66537C0 14.2879 3.34835 17.8599 7.91427 17.8599C12.4802 17.8599 15.7271 14.2879 15.7271 9.66537C15.7271 4.93774 12.4802 1.57588 7.91427 1.57588C3.34835 1.57588 0 4.93774 0 9.66537ZM22.7282 42.7588C29.5263 42.7588 33.9908 38.1362 33.9908 31.0973V12.1868C33.9908 5.25292 29.5263 0.525292 22.7282 0.525292H15.4227C18.3317 2.48673 19.7857 5.25292 19.7857 8.8249V34.4591C19.7857 38.0311 18.3317 40.7973 15.4227 42.7588H22.7282ZM63.2127 53.0545C69.9094 53.0545 74.4753 48.3268 74.4753 41.393V12.1868C74.4753 5.25292 69.9094 0.525292 63.2127 0.525292H59.0526V53.0545H63.2127ZM42.9197 53.0545C49.7178 53.0545 54.2838 48.3268 54.2838 41.393V12.1868C54.2838 5.25292 49.7178 0.525292 42.9197 0.525292H38.8611V53.0545H42.9197ZM128.117 8.08949L131.262 15.0233H124.971L128.117 8.08949ZM150.811 18.5953C146.753 18.5953 143.81 15.6537 143.81 11.4514C143.81 7.14397 146.753 4.20233 150.811 4.20233C154.768 4.20233 157.61 7.14397 157.61 11.4514C157.61 15.6537 154.768 18.5953 150.811 18.5953ZM150.811 0.420233C144.926 0.420233 140.259 5.25292 140.259 11.4514C140.259 17.4397 144.926 22.4825 150.811 22.4825C156.595 22.4825 161.161 17.4397 161.161 11.4514C161.161 5.25292 156.595 0.420233 150.811 0.420233ZM123.652 18.2802H132.48L133.9 21.4319H137.654L128.117 0.525292L118.579 21.4319H122.232L123.652 18.2802ZM113.235 49.0623H124.193V46.0156H113.235V49.0623ZM185.275 42.9689C185.275 38.7665 188.116 35.8249 192.175 35.8249C196.132 35.8249 198.973 38.7665 198.973 42.9689C198.973 47.2763 196.132 50.2179 192.175 50.2179C188.116 50.2179 185.275 47.2763 185.275 42.9689ZM167.214 50.2179C163.257 50.2179 160.315 47.2763 160.315 42.9689C160.315 38.7665 163.257 35.8249 167.214 35.8249C171.273 35.8249 174.114 38.7665 174.114 42.9689C174.114 47.2763 171.273 50.2179 167.214 50.2179ZM222.176 11.0311C222.176 6.82879 225.118 3.88716 229.075 3.88716C233.134 3.88716 235.975 6.82879 235.975 11.0311C235.975 15.2335 233.134 18.2802 229.075 18.2802C225.118 18.2802 222.176 15.2335 222.176 11.0311ZM119.018 40.8677C117.192 40.8677 115.974 39.607 115.974 37.716C115.974 35.93 117.192 34.5642 119.018 34.5642C120.845 34.5642 122.062 35.93 122.062 37.716C122.062 39.607 120.743 40.8677 119.018 40.8677ZM266.55 0.63035V17.965H258.94V0.63035H255.491V17.965H247.881V0.63035H244.532V21.537H270V0.63035H266.55ZM119.018 31.6226C115.873 31.6226 113.032 34.4591 113.032 37.716C113.032 40.8677 115.873 43.8093 119.018 43.8093C122.062 43.8093 125.005 40.8677 125.005 37.716C125.005 34.4591 122.062 31.6226 119.018 31.6226ZM167.214 54C173.099 54 177.665 49.0623 177.665 42.9689C177.665 36.8755 173.099 31.9377 167.214 31.9377C161.431 31.9377 156.662 36.8755 156.662 42.9689C156.662 49.0623 161.431 54 167.214 54ZM192.175 54C197.958 54 202.626 49.0623 202.626 42.9689C202.626 36.8755 197.958 31.9377 192.175 31.9377C186.29 31.9377 181.622 36.8755 181.622 42.9689C181.622 49.0623 186.29 54 192.175 54ZM136.775 52.9494H152.4V49.3774H144.182L149.052 44.0195C150.574 42.3385 151.792 40.6576 151.792 38.3463C151.792 35.1945 149.356 31.7276 144.588 31.7276C139.717 31.7276 136.876 34.8794 136.775 39.2918H140.225C140.428 36.8755 142.152 35.2996 144.486 35.2996C146.617 35.2996 148.037 36.9805 148.037 38.5564C148.037 40.4475 146.82 41.8132 145.298 43.4942L136.775 52.9494ZM106.132 32.0428V44.6498L93.7537 31.9377V52.9494H97.2035V40.3424L109.582 53.0545V32.0428H106.132ZM214.802 3.04669C212.874 1.15564 210.338 0 207.598 0C201.713 0 197.046 5.0428 197.046 11.0311C197.046 17.1245 201.713 22.0623 207.598 22.0623C210.338 22.0623 212.874 20.9066 214.802 19.0156L212.164 16.4942C211.048 17.5447 209.425 18.2802 207.598 18.2802C203.54 18.2802 200.597 15.2335 200.597 11.0311C200.597 6.82879 203.54 3.88716 207.598 3.88716C209.425 3.88716 211.048 4.62257 212.164 5.56809L214.802 3.04669ZM239.526 11.0311C239.526 5.0428 234.96 0 229.075 0C223.292 0 218.523 5.0428 218.523 11.0311C218.523 17.1245 223.292 22.0623 229.075 22.0623C234.96 22.0623 239.526 17.1245 239.526 11.0311ZM171.274 15.1284L168.027 21.4319H171.781L182.739 0.63035H178.985L173.303 11.2412L167.925 0.63035H164.07L171.274 15.1284ZM93.7537 0.525292V21.4319H97.2035V7.98444L104.205 14.6031L111.307 7.98444V21.4319H114.655V0.525292L104.205 9.98054L93.7537 0.525292Z" fill="#223A76"/>
</svg>
